<?xml version="1.0" standalone="no"?>
<!DOCTYPE svg PUBLIC "-//W3C//DTD SVG 20010904//EN"
 "http://www.w3.org/TR/2001/REC-SVG-20010904/DTD/svg10.dtd">
<svg version="1.0" xmlns="http://www.w3.org/2000/svg"
 width="1280.000000pt" height="1052.000000pt" viewBox="0 0 1280.000000 1052.000000"
 preserveAspectRatio="xMidYMid meet">
<metadata>
Created by potrace 1.15, written by Peter Selinger 2001-2017
</metadata>
<g transform="translate(0.000000,1052.000000) scale(0.100000,-0.100000)"
fill="#000000" stroke="none">
<path d="M9320 10513 c-201 -31 -381 -117 -517 -247 -126 -119 -207 -252 -260
-423 -24 -80 -27 -103 -27 -248 0 -145 3 -168 27 -248 99 -324 320 -545 644
-644 80 -24 103 -27 248 -27 145 0 168 3 248 27 158 49 276 117 391 226 122
118 212 270 258 438 31 116 31 335 -1 453 -98 363 -370 614 -744 685 -73 14
-206 18 -267 8z"/>
<path d="M6610 9073 c-50 -3 -918 -74 -1520 -123 -1255 -104 -2319 -205 -2484
-236 -82 -16 -240 -64 -233 -71 9 -8 151 -33 272 -47 681 -80 2962 -318 3340
-350 619 -52 1285 -43 1495 20 148 44 277 140 327 243 38 77 39 192 4 265 -83
167 -270 265 -565 295 -99 10 -501 12 -636 4z"/>
<path d="M10215 8274 c-119 -29 -234 -98 -291 -175 -87 -118 -87 -225 0 -454
50 -132 123 -258 478 -830 103 -166 195 -343 204 -391 7 -39 -28 -82 -135
-163 -330 -250 -735 -459 -1386 -716 -308 -122 -365 -155 -377 -219 -3 -18 4
-19 117 -17 291 5 888 77 1209 146 488 105 868 276 1073 483 73 74 141 201
174 327 28 106 30 302 5 430 -55 286 -186 678 -331 992 -121 260 -334 477
-548 557 -67 26 -154 39 -192 30z"/>
<path d="M2097 8186 c-57 -21 -96 -57 -125 -116 -16 -32 -17 -155 -22 -1605
l-5 -1570 -23 -49 c-12 -28 -450 -789 -972 -1692 l-950 -1641 2 -424 3 -423
717 1240 c394 681 914 1581 1155 1999 l439 760 1159 5 1160 5 58 28 c162 80
161 287 -2 370 l-55 27 -1126 0 -1127 0 -7 508 c-3 279 -6 937 -5 1462 2 890
0 958 -16 990 -29 59 -85 109 -139 125 -60 18 -70 18 -119 1z"/>
<path d="M6675 6340 c-84 -12 -160 -38 -237 -81 -228 -129 -442 -310 -677
-574 -523 -586 -885 -1121 -983 -1454 -11 -36 -22 -111 -25 -166 -7 -119 5
-151 84 -227 83 -81 203 -126 308 -115 74 7 197 52 276 98 109 65 297 229 545
475 705 702 1036 1146 1175 1579 44 135 32 267 -31 338 -79 90 -280 149 -435
127z"/>
<path d="M7662 5520 c-338 -89 -709 -450 -1233 -1203 -240 -344 -848 -1253
-1109 -1657 -641 -994 -1436 -2273 -1533 -2465 -29 -59 -77 -175 -77 -187 0
-19 135 96 335 287 116 110 444 421 730 690 1355 1277 1975 1894 2630 2620
397 439 558 660 722 990 124 250 166 388 166 550 0 118 -12 166 -59 238 -32
49 -129 112 -212 137 -87 27 -257 27 -360 0z"/>
<path d="M8647 5084 c-62 -19 -131 -85 -148 -142 -31 -104 40 -223 152 -256
47 -14 271 -16 2101 -16 l2048 0 0 215 0 215 -2052 -1 c-1774 0 -2059 -2
-2101 -15z"/>
<path d="M2163 2080 c-150 -27 -326 -106 -449 -201 -176 -136 -307 -354 -355
-594 -17 -86 -14 -275 6 -370 75 -353 335 -633 692 -742 81 -24 102 -27 263
-27 163 0 181 2 265 27 350 107 592 356 687 709 32 120 32 346 -1 468 -26 98
-91 239 -148 323 -122 180 -333 326 -560 388 -89 24 -311 34 -400 19z"/>
</g>
</svg>
