<?xml version="1.0" standalone="no"?>
<!DOCTYPE svg PUBLIC "-//W3C//DTD SVG 20010904//EN"
 "http://www.w3.org/TR/2001/REC-SVG-20010904/DTD/svg10.dtd">
<svg version="1.0" xmlns="http://www.w3.org/2000/svg"
 width="450.000000pt" height="450.000000pt" viewBox="0 0 450.000000 450.000000"
 preserveAspectRatio="xMidYMid meet">

<g transform="translate(0.000000,450.000000) scale(0.100000,-0.100000)"
fill="#000000" stroke="none">
<path d="M890 3991 c0 -25 203 -313 528 -750 341 -458 473 -615 554 -655 66
-33 157 -36 204 -7 40 24 69 95 60 144 -13 71 -66 123 -816 813 -495 455 -530
485 -530 455z"/>
<path d="M1019 2980 c-179 -95 -151 -267 81 -500 69 -69 137 -126 198 -165 52
-33 111 -73 133 -88 l40 -28 -100 -104 c-54 -58 -182 -200 -284 -317 -102
-117 -220 -247 -262 -288 -42 -41 -86 -88 -98 -104 l-21 -29 30 7 c37 9 429
220 551 296 146 92 241 166 348 274 228 230 223 322 -35 646 -158 198 -313
333 -454 395 -67 30 -80 30 -127 5z"/>
<path d="M2577 2880 c-85 -22 -172 -92 -215 -175 -24 -44 -27 -62 -27 -145 0
-83 3 -101 27 -145 32 -62 104 -130 166 -158 66 -30 188 -30 254 0 62 28 134
96 166 158 24 44 27 62 27 145 0 83 -3 101 -27 145 -33 63 -104 130 -165 156
-55 24 -152 32 -206 19z"/>
<path d="M0 1255 l0 -45 515 0 515 0 0 -308 c0 -249 3 -312 14 -327 14 -19 19
-18 188 38 203 67 243 76 323 77 80 0 115 -11 280 -85 162 -73 235 -90 341
-82 93 8 182 38 346 116 167 79 241 101 337 101 98 0 158 -19 371 -120 202
-95 250 -110 357 -110 107 0 214 34 327 103 121 75 216 124 262 136 56 15 70
33 55 69 -12 28 -13 29 -63 21 -63 -10 -142 -47 -282 -133 -227 -138 -339
-140 -604 -7 -234 117 -364 151 -499 131 -90 -14 -152 -36 -315 -114 -204 -96
-316 -120 -427 -92 -34 9 -120 42 -189 75 -161 74 -208 85 -336 78 -103 -6
-207 -31 -333 -81 l-63 -25 0 293 c0 248 -2 295 -16 314 l-15 22 -545 0 -544
0 0 -45z"/>
</g>
</svg>
