<?xml version="1.0" standalone="no"?>
<!DOCTYPE svg PUBLIC "-//W3C//DTD SVG 20010904//EN"
 "http://www.w3.org/TR/2001/REC-SVG-20010904/DTD/svg10.dtd">
<svg version="1.0" xmlns="http://www.w3.org/2000/svg"
 width="1280.000000pt" height="847.000000pt" viewBox="0 0 1280.000000 847.000000"
 preserveAspectRatio="xMidYMid meet">
<metadata>
Created by potrace 1.15, written by Peter Selinger 2001-2017
</metadata>
<g transform="translate(0.000000,847.000000) scale(0.100000,-0.100000)"
fill="#000000" stroke="none">
<path d="M6395 8460 c-296 -44 -580 -220 -742 -460 -40 -59 -111 -201 -135
-270 -154 -445 82 -1004 517 -1223 312 -157 650 -166 960 -27 200 90 390 270
494 470 114 217 152 464 102 665 -55 227 -124 358 -272 519 -216 237 -604 374
-924 326z"/>
<path d="M5062 6499 c-40 -12 -254 -155 -359 -240 -119 -96 -374 -358 -502
-514 -63 -77 -249 -320 -414 -540 -393 -525 -481 -636 -1055 -1337 -289 -354
-425 -529 -748 -958 -176 -234 -376 -498 -445 -587 l-124 -163 -187 0 -188 0
0 883 c0 820 -2 884 -18 904 l-17 23 -402 0 c-371 1 -483 -3 -571 -16 l-32 -5
2 -1947 3 -1947 518 -3 517 -2 0 909 0 909 1983 6 c1090 3 2026 9 2079 12 77
5 99 3 102 -8 2 -7 14 -130 25 -273 42 -500 86 -788 166 -1080 48 -174 69
-223 122 -287 83 -100 174 -158 279 -180 134 -27 314 84 400 247 129 245 214
789 214 1378 l0 207 144 0 144 0 6 -82 c2 -46 10 -180 16 -298 24 -459 74
-760 174 -1045 80 -230 129 -301 249 -360 79 -39 178 -61 231 -51 113 21 239
130 300 259 102 217 176 800 176 1389 l0 198 1438 0 c790 0 1670 3 1955 7
l517 6 0 -956 0 -957 520 0 520 0 0 1888 c-1 1658 -5 2030 -22 2036 -2 1 -231
0 -510 -2 l-508 -3 0 -861 0 -861 -37 7 c-21 3 -63 6 -93 6 l-55 1 -105 142
c-637 864 -897 1203 -1249 1632 -331 403 -478 589 -745 949 -566 763 -711 941
-972 1196 -150 146 -282 251 -419 331 l-87 52 -106 -8 c-59 -3 -129 -14 -157
-23 -46 -16 -52 -22 -77 -73 -52 -108 -85 -290 -75 -419 21 -262 147 -523 389
-805 102 -118 233 -238 1114 -1020 1158 -1028 1438 -1282 2064 -1873 l95 -89
-780 -8 c-733 -7 -2601 -3 -2609 6 -2 2 -9 144 -15 314 -6 171 -16 384 -21
475 -5 91 -14 260 -20 375 -25 497 -53 683 -126 843 -73 161 -148 222 -273
222 -84 0 -135 -25 -201 -97 -112 -123 -201 -261 -287 -448 -23 -49 -70 -153
-106 -230 -111 -239 -138 -375 -138 -685 0 -113 4 -270 10 -350 5 -80 13 -212
16 -293 l6 -148 -148 7 c-81 4 -150 8 -152 10 -2 2 -5 279 -7 616 -3 337 -9
669 -15 738 -19 224 -64 388 -155 556 -24 44 -83 168 -132 275 -48 107 -114
238 -146 292 -67 114 -171 229 -260 287 -51 34 -69 40 -113 40 -187 0 -303
-150 -363 -469 -39 -212 -52 -1120 -26 -1946 6 -214 9 -394 5 -398 -7 -9 -530
-13 -2416 -21 l-1003 -4 58 51 c31 29 132 124 225 212 351 334 468 440 1411
1274 534 471 1085 958 1225 1082 335 296 507 485 644 709 96 159 153 331 163
500 7 104 -2 160 -57 357 l-31 113 -72 21 c-80 24 -224 34 -274 18z"/>
</g>
</svg>
