<?xml version="1.0" standalone="no"?>
<!DOCTYPE svg PUBLIC "-//W3C//DTD SVG 20010904//EN"
 "http://www.w3.org/TR/2001/REC-SVG-20010904/DTD/svg10.dtd">
<svg version="1.0" xmlns="http://www.w3.org/2000/svg"
 width="1280.000000pt" height="1120.000000pt" viewBox="0 0 1280.000000 1120.000000"
 preserveAspectRatio="xMidYMid meet">
<metadata>
Created by potrace 1.15, written by Peter Selinger 2001-2017
</metadata>
<g transform="translate(0.000000,1120.000000) scale(0.100000,-0.100000)"
fill="#000000" stroke="none">
<path d="M3913 11186 c-322 -62 -570 -242 -706 -511 -73 -146 -97 -248 -97
-414 0 -144 26 -246 97 -384 127 -245 319 -401 598 -483 111 -32 316 -44 429
-24 324 57 579 250 716 543 56 119 81 215 87 337 4 91 1 118 -21 203 -29 114
-97 264 -160 351 -88 123 -233 239 -383 307 -161 73 -401 105 -560 75z"/>
<path d="M8600 10571 c-271 -61 -487 -230 -605 -474 -60 -125 -76 -190 -82
-338 -8 -191 30 -341 129 -506 101 -169 298 -315 505 -375 104 -31 351 -33
453 -4 298 83 526 305 616 601 25 81 28 105 28 240 0 114 -4 165 -18 215 -88
317 -314 545 -631 632 -104 29 -286 33 -395 9z m330 -256 c215 -57 389 -232
445 -446 11 -39 17 -101 17 -159 -1 -216 -115 -412 -303 -523 -346 -203 -789
-23 -905 368 -22 73 -24 226 -5 305 52 215 219 388 436 451 76 22 239 24 315
4z"/>
<path d="M8050 10455 c-47 -8 -130 -23 -185 -35 -55 -11 -199 -41 -320 -66
-121 -24 -247 -51 -280 -59 -33 -8 -109 -26 -170 -40 -474 -113 -975 -276
-2150 -700 -641 -232 -1195 -502 -1401 -682 l-94 -83 -1725 0 -1725 0 0 -130
0 -130 1684 0 1684 0 16 -70 c28 -127 95 -220 195 -270 85 -42 250 -37 391 12
30 10 177 80 325 154 303 150 380 176 527 178 48 0 89 -2 91 -4 3 -3 -4 -39
-15 -80 -24 -94 -19 -155 19 -241 45 -97 97 -173 182 -262 162 -171 301 -249
703 -396 580 -212 931 -303 1388 -358 184 -22 929 -25 1165 -5 584 51 897 81
901 85 2 2 -10 13 -26 25 -45 34 -198 66 -555 117 -246 35 -637 109 -955 182
-404 91 -715 194 -995 328 -66 32 -160 75 -210 96 -160 70 -324 172 -635 393
l-155 111 3538 3 3537 2 0 130 0 130 -3912 0 -3912 0 44 38 c95 82 242 192
380 284 315 210 631 373 1420 731 272 124 623 285 780 357 157 73 336 150 399
171 100 34 201 81 201 94 0 8 -60 4 -150 -10z"/>
<path d="M3569 5896 c-120 -49 -182 -106 -220 -202 -20 -51 -23 -77 -23 -194
-1 -74 3 -172 7 -217 l8 -83 -1670 0 -1671 0 0 -130 0 -130 1714 0 1714 0 22
-52 c125 -293 245 -513 602 -1098 350 -575 490 -863 608 -1255 28 -93 69 -226
90 -295 86 -279 167 -558 230 -795 18 -66 40 -149 50 -185 42 -146 193 -770
250 -1030 22 -102 44 -194 47 -205 13 -39 21 26 22 173 1 135 -2 216 -30 747
-14 275 -34 481 -68 700 -5 33 -15 94 -21 135 -6 41 -15 100 -20 130 -5 30
-14 89 -20 130 -17 110 -24 157 -70 450 -23 146 -48 310 -56 365 -50 352 -119
647 -279 1205 -145 503 -242 876 -232 886 10 10 75 -79 127 -173 160 -293 298
-480 729 -988 585 -690 721 -900 1098 -1703 63 -136 141 -299 173 -362 75
-150 148 -316 277 -629 58 -141 145 -353 193 -471 107 -260 152 -383 175 -478
18 -72 18 -72 52 -72 28 0 33 3 29 18 -3 9 -23 107 -45 217 -108 540 -243
1128 -300 1310 -85 267 -232 720 -388 1195 -192 588 -196 598 -714 1748 -93
206 -169 378 -169 381 0 3 1577 5 3505 3 l3505 -2 0 130 0 130 -2413 0 c-1328
0 -2941 3 -3586 7 l-1172 6 -141 155 c-203 221 -353 342 -473 382 -33 11 -107
28 -164 39 l-104 19 -82 -52 c-98 -64 -146 -118 -171 -194 -21 -62 -25 -173
-11 -299 5 -53 4 -73 -4 -73 -24 0 -106 100 -187 226 -170 266 -334 414 -537
484 -75 26 -117 25 -186 -4z"/>
</g>
</svg>
