<?xml version="1.0" standalone="no"?>
<!DOCTYPE svg PUBLIC "-//W3C//DTD SVG 20010904//EN"
 "http://www.w3.org/TR/2001/REC-SVG-20010904/DTD/svg10.dtd">
<svg version="1.0" xmlns="http://www.w3.org/2000/svg"
 width="960.000000pt" height="710.000000pt" viewBox="0 0 960.000000 710.000000"
 preserveAspectRatio="xMidYMid meet">

<g transform="translate(0.000000,710.000000) scale(0.100000,-0.100000)"
fill="#000000" stroke="none">
<path d="M5195 7083 c-236 -50 -435 -201 -539 -409 -110 -222 -112 -425 -7
-649 129 -274 390 -437 701 -437 139 0 235 22 360 84 70 35 102 59 180 138
135 135 188 234 226 421 20 100 15 180 -21 303 -33 112 -70 186 -140 273 -178
223 -485 335 -760 276z"/>
<path d="M8330 6439 c-225 -35 -333 -56 -455 -85 -547 -134 -949 -354 -1296
-710 -190 -196 -318 -365 -769 -1019 -244 -353 -297 -425 -315 -425 -19 0
-266 100 -345 140 -303 152 -501 373 -594 661 -33 103 -61 248 -90 470 -29
215 -46 288 -88 375 -38 79 -97 139 -168 173 -47 22 -69 26 -145 26 -84 -1
-97 -4 -169 -38 -138 -66 -253 -207 -302 -372 -36 -120 -17 -325 48 -518 60
-182 203 -449 327 -614 79 -105 225 -243 339 -321 226 -155 547 -275 835 -314
48 -6 87 -15 87 -19 0 -13 -129 -122 -203 -172 -196 -130 -494 -250 -836 -336
-171 -43 -416 -87 -538 -97 l-78 -6 -60 44 c-194 143 -388 235 -905 428 -286
107 -361 124 -526 118 -117 -4 -125 -5 -197 -41 -109 -54 -199 -164 -247 -301
-23 -64 -28 -178 -11 -235 6 -19 10 -36 8 -37 -4 -4 -366 34 -582 61 -241 31
-679 96 -865 129 -74 13 -138 21 -141 18 -8 -9 -48 -196 -43 -201 10 -11 591
-109 864 -145 231 -31 533 -62 755 -76 189 -13 196 -15 310 -100 141 -105 305
-171 720 -291 171 -49 339 -103 374 -120 141 -65 247 -162 303 -277 l32 -65
-17 -66 c-24 -93 -103 -248 -189 -372 -104 -147 -830 -967 -1260 -1421 -182
-192 -248 -272 -235 -284 24 -24 300 110 702 341 127 73 348 200 492 283 403
231 566 354 833 628 314 324 478 607 535 927 46 257 -46 481 -314 759 -51 54
-91 98 -89 98 17 0 288 57 403 85 296 71 524 152 732 260 203 105 314 185 448
321 l120 122 520 6 c619 7 831 18 885 46 41 21 57 45 34 54 -8 3 -150 21 -317
41 -166 20 -341 42 -388 50 -108 19 -511 104 -516 109 -2 2 41 68 97 146 56
78 133 190 172 249 114 170 344 496 433 616 373 496 714 753 1220 919 223 73
576 150 594 130 5 -5 85 -211 179 -459 94 -247 333 -874 531 -1393 198 -519
358 -949 355 -955 -8 -21 -487 -327 -511 -327 -8 0 -24 5 -35 11 -11 6 -349
274 -751 595 -496 397 -742 588 -768 595 -49 15 -94 -2 -120 -45 -30 -49 -24
-81 22 -131 38 -41 69 -68 242 -205 l67 -53 0 -1146 c0 -763 4 -1159 11 -1183
12 -44 40 -62 112 -72 l48 -7 22 48 22 48 5 1068 5 1069 125 -103 c180 -148
586 -472 797 -637 l183 -143 395 253 c299 191 397 259 402 277 7 26 27 -28
-510 1376 -207 539 -442 1158 -525 1375 -94 251 -154 396 -163 396 -8 1 -39
-2 -69 -7z"/>
</g>
</svg>
