<?xml version="1.0" standalone="no"?>
<!DOCTYPE svg PUBLIC "-//W3C//DTD SVG 20010904//EN"
 "http://www.w3.org/TR/2001/REC-SVG-20010904/DTD/svg10.dtd">
<svg version="1.0" xmlns="http://www.w3.org/2000/svg"
 width="300.000000pt" height="300.000000pt" viewBox="0 0 300.000000 300.000000"
 preserveAspectRatio="xMidYMid meet">

<g transform="translate(0.000000,300.000000) scale(0.100000,-0.100000)"
fill="#000000" stroke="none">
<path d="M1532 2747 c-50 -19 -98 -62 -121 -110 -62 -127 26 -283 169 -303
134 -18 262 102 247 231 -15 138 -164 229 -295 182z"/>
<path d="M2073 2440 c-18 -10 -44 -38 -59 -60 -22 -34 -28 -53 -28 -103 0 -40
6 -73 17 -94 17 -31 17 -32 -15 -58 -31 -26 -105 -67 -144 -79 -18 -5 -27 3
-59 53 -48 75 -91 98 -154 81 -43 -11 -53 -24 -66 -84 l-6 -29 -35 34 c-19 19
-62 74 -96 122 -96 140 -169 179 -230 120 -24 -23 -28 -35 -28 -81 0 -73 35
-140 113 -220 120 -123 255 -201 349 -202 35 0 54 -6 76 -25 58 -48 159 -88
238 -93 163 -10 260 57 329 230 22 56 31 67 66 82 87 39 125 163 77 256 -27
53 -78 90 -125 90 -26 0 -42 9 -72 40 -32 33 -44 40 -77 40 -21 0 -53 -9 -71
-20z m104 -358 l21 -28 -30 -45 c-84 -125 -177 -171 -239 -120 l-24 20 25 18
c48 34 100 86 136 134 43 59 78 66 111 21z"/>
<path d="M1082 1620 c-73 -44 -78 -99 -31 -307 42 -185 46 -342 10 -448 -59
-175 -157 -324 -408 -627 -36 -43 -62 -78 -58 -78 12 0 253 186 350 271 292
255 389 416 402 669 10 198 -66 448 -154 506 -46 30 -78 34 -111 14z"/>
<path d="M1340 1552 c-15 -12 -24 -33 -27 -62 -6 -57 17 -93 107 -168 36 -29
92 -76 125 -104 72 -59 156 -162 191 -230 26 -51 66 -192 83 -293 11 -61 25
-236 36 -425 3 -57 7 -106 9 -107 2 -2 11 34 19 79 57 287 81 591 57 735 -15
96 -64 221 -117 299 -70 102 -230 239 -328 280 -49 20 -128 18 -155 -4z"/>
</g>
</svg>
