<?xml version="1.0" standalone="no"?>
<!DOCTYPE svg PUBLIC "-//W3C//DTD SVG 20010904//EN"
 "http://www.w3.org/TR/2001/REC-SVG-20010904/DTD/svg10.dtd">
<svg version="1.0" xmlns="http://www.w3.org/2000/svg"
 width="800.000000pt" height="800.000000pt" viewBox="0 0 800.000000 800.000000"
 preserveAspectRatio="xMidYMid meet">

<g transform="translate(0.000000,800.000000) scale(0.100000,-0.100000)"
fill="#000000" stroke="none">
<path d="M3657 7485 c-346 -189 -631 -346 -635 -349 -3 -4 5 -14 19 -24 13 -9
73 -56 134 -105 560 -449 962 -988 1249 -1677 l65 -155 71 -3 70 -3 -19 48
c-10 26 -33 82 -49 124 -165 413 -408 824 -691 1168 -116 142 -406 433 -529
531 -44 36 -81 68 -81 71 -1 4 232 134 517 289 284 156 532 291 550 302 l33
20 -30 51 c-16 28 -33 53 -38 54 -4 1 -291 -153 -636 -342z"/>
<path d="M2935 7645 c-349 -55 -680 -219 -915 -455 -214 -213 -310 -418 -370
-781 -28 -175 -34 -274 -21 -373 21 -159 75 -261 174 -330 49 -35 66 -41 122
-44 36 -3 86 1 110 8 58 16 125 87 153 161 40 108 47 172 44 429 -4 437 24
589 137 750 135 193 415 383 706 478 101 33 127 37 310 52 224 18 236 20 225
40 -10 18 -113 52 -214 70 -80 14 -362 11 -461 -5z"/>
<path d="M2941 6704 c-259 -70 -441 -295 -441 -547 0 -148 57 -291 161 -402
151 -160 391 -220 605 -151 306 98 479 422 380 710 -36 107 -69 159 -147 237
-72 73 -170 127 -274 154 -74 19 -213 18 -284 -1z"/>
<path d="M5574 5863 c-179 -307 -174 -301 -291 -412 -283 -271 -591 -421 -861
-421 -155 0 -274 35 -593 171 -292 124 -358 143 -494 144 -124 0 -168 -15
-220 -77 -51 -60 -68 -113 -61 -187 14 -160 142 -291 366 -379 92 -36 320 -95
455 -118 142 -24 384 -25 494 -1 415 90 797 350 1049 715 71 103 156 271 191
379 46 141 61 283 30 283 -4 0 -34 -44 -65 -97z"/>
<path d="M4740 4583 c-25 -9 -46 -17 -48 -18 -1 -1 19 -85 46 -186 27 -101 57
-219 67 -261 l18 -76 91 -60 c166 -109 319 -235 492 -407 190 -189 285 -300
522 -613 l161 -212 -531 -1225 c-426 -982 -535 -1225 -550 -1225 -15 0 -18 -8
-18 -45 0 -48 -4 -45 101 -69 26 -6 29 2 588 1290 l562 1295 -69 87 c-38 48
-118 152 -177 232 -352 471 -649 764 -1033 1020 -18 12 -33 54 -78 230 -31
118 -59 225 -61 238 -6 26 -21 26 -83 5z"/>
<path d="M4432 3900 c-255 -32 -518 -135 -747 -290 -176 -120 -271 -228 -335
-378 -76 -180 -58 -314 52 -390 101 -69 205 -80 333 -35 146 52 203 90 543
365 195 158 287 208 378 208 116 0 333 -303 706 -985 241 -439 247 -450 263
-434 11 12 8 47 -16 199 -43 278 -84 461 -149 668 -102 324 -178 510 -282 694
-117 205 -217 299 -380 353 -93 30 -240 40 -366 25z"/>
<path d="M2398 2979 c-69 -10 -118 -30 -180 -71 -41 -28 -49 -40 -64 -93 -9
-33 -17 -94 -18 -135 -1 -64 3 -84 29 -133 37 -74 129 -161 220 -209 128 -66
287 -114 775 -233 129 -32 271 -68 315 -82 193 -60 361 -178 610 -427 247
-247 440 -505 554 -740 56 -114 191 -458 191 -488 1 -7 7 -2 15 12 20 34 19
225 0 376 -55 416 -221 808 -498 1176 -217 289 -492 507 -882 698 -341 168
-592 270 -795 323 -113 30 -194 38 -272 26z"/>
</g>
</svg>
