<?xml version="1.0" standalone="no"?>
<!DOCTYPE svg PUBLIC "-//W3C//DTD SVG 20010904//EN"
 "http://www.w3.org/TR/2001/REC-SVG-20010904/DTD/svg10.dtd">
<svg version="1.0" xmlns="http://www.w3.org/2000/svg"
 width="1280.000000pt" height="1256.000000pt" viewBox="0 0 1280.000000 1256.000000"
 preserveAspectRatio="xMidYMid meet">
<metadata>
Created by potrace 1.15, written by Peter Selinger 2001-2017
</metadata>
<g transform="translate(0.000000,1256.000000) scale(0.100000,-0.100000)"
fill="#000000" stroke="none">
<path d="M5865 12554 c-298 -40 -495 -135 -695 -334 -459 -455 -460 -1132 -3
-1611 143 -150 343 -255 588 -310 38 -9 121 -14 225 -13 144 1 177 4 260 26
339 91 592 294 740 593 173 350 176 646 10 1002 -111 236 -273 404 -500 518
-103 52 -189 83 -290 106 -82 18 -273 32 -335 23z"/>
<path d="M3044 10710 c-125 -14 -233 -40 -399 -95 -515 -171 -817 -340 -1047
-584 -514 -546 -662 -1348 -364 -1973 113 -236 301 -421 673 -660 268 -172
443 -251 628 -284 110 -19 531 -19 685 1 228 29 330 52 490 112 121 45 178 74
265 134 117 81 178 158 192 243 5 31 3 36 -14 36 -44 0 -147 -24 -303 -70
-260 -76 -249 -74 -535 -75 -239 0 -269 2 -370 24 -204 45 -462 197 -627 370
-150 156 -213 288 -244 508 -50 360 67 651 323 802 181 107 364 174 819 301
385 108 434 124 579 198 131 67 220 147 263 239 36 77 37 195 3 293 -40 115
-110 228 -171 277 -108 85 -278 158 -439 189 -93 18 -310 26 -407 14z"/>
<path d="M6940 10179 c-83 -16 -190 -77 -260 -148 -119 -121 -187 -306 -163
-445 30 -178 163 -321 378 -407 216 -86 402 -100 1180 -87 441 7 697 16 1115
38 96 5 267 14 380 20 937 48 1361 73 1680 100 63 5 174 14 245 20 437 37
1046 110 1180 142 95 23 128 45 123 81 -3 24 -49 33 -768 137 -933 135 -1038
150 -1410 210 -127 20 -276 44 -500 80 -341 54 -803 120 -1050 150 -96 11
-209 25 -250 30 -72 9 -268 28 -525 50 -398 35 -1234 53 -1355 29z"/>
<path d="M3550 9365 c-404 -49 -797 -262 -974 -529 -73 -109 -125 -220 -195
-416 -46 -128 -56 -168 -47 -179 21 -27 211 -173 308 -237 115 -76 303 -172
408 -208 168 -57 187 -59 465 -60 233 0 271 2 362 22 127 28 319 97 429 156
223 119 418 323 539 565 46 93 103 265 110 334 6 52 6 52 -37 85 -293 226
-364 275 -494 341 -232 116 -561 164 -874 126z m455 -271 c203 -32 349 -99
563 -259 121 -90 118 -75 43 -230 -129 -268 -329 -442 -625 -541 -164 -56
-235 -65 -476 -65 -202 0 -222 2 -305 26 -97 28 -199 71 -285 118 -55 31 -225
142 -267 175 l-22 17 23 65 c70 192 154 332 248 412 286 244 686 346 1103 282z"/>
<path d="M3654 6580 c-119 -16 -298 -89 -369 -151 -90 -79 -144 -249 -146
-463 -3 -185 80 -370 245 -554 58 -63 218 -193 333 -270 52 -35 82 -60 79 -69
-20 -51 -196 -304 -390 -563 -127 -168 -330 -436 -451 -597 -121 -160 -375
-498 -565 -749 -943 -1252 -1471 -1932 -2098 -2703 -146 -179 -271 -341 -279
-360 -13 -31 -11 -101 3 -101 2 0 140 109 307 242 269 216 625 505 1927 1568
206 168 483 393 615 500 1052 851 1345 1127 1915 1800 118 139 224 264 235
277 l20 23 145 -117 c180 -145 301 -266 366 -363 47 -71 49 -78 48 -141 -1
-159 -104 -422 -264 -678 -81 -128 -317 -444 -458 -610 -118 -141 -384 -411
-537 -546 -55 -48 -179 -149 -275 -223 -208 -161 -327 -261 -395 -332 l-50
-52 45 7 c380 58 778 194 1232 421 351 176 598 346 997 690 501 431 589 528
716 798 140 295 175 601 103 895 -78 319 -364 765 -748 1166 -47 50 -91 97
-98 106 -10 13 -3 33 37 110 76 147 95 209 96 314 0 90 0 91 -57 205 -119 238
-268 365 -474 406 -181 35 -428 -23 -641 -151 l-78 -46 -185 90 c-190 93 -250
119 -355 152 -216 70 -381 91 -551 69z"/>
</g>
</svg>
