<?xml version="1.0" standalone="no"?>
<!DOCTYPE svg PUBLIC "-//W3C//DTD SVG 20010904//EN"
 "http://www.w3.org/TR/2001/REC-SVG-20010904/DTD/svg10.dtd">
<svg version="1.0" xmlns="http://www.w3.org/2000/svg"
 width="1182.000000pt" height="1280.000000pt" viewBox="0 0 1182.000000 1280.000000"
 preserveAspectRatio="xMidYMid meet">
<metadata>
Created by potrace 1.15, written by Peter Selinger 2001-2017
</metadata>
<g transform="translate(0.000000,1280.000000) scale(0.100000,-0.100000)"
fill="#000000" stroke="none">
<path d="M6684 12767 c-50 -74 -52 -82 -104 -337 -66 -326 -74 -419 -74 -805
1 -877 89 -1492 309 -2150 171 -515 366 -911 690 -1400 306 -463 587 -758 950
-998 229 -151 333 -191 500 -192 126 0 153 9 228 76 107 93 147 188 147 345 0
191 -50 342 -174 527 -84 127 -139 190 -542 622 -360 388 -438 473 -548 604
-191 230 -420 556 -519 741 -127 238 -486 1021 -565 1230 -114 306 -167 585
-202 1070 -23 318 -31 410 -46 534 -21 168 -23 174 -50 133z"/>
<path d="M11515 12403 c-47 -12 -408 -334 -545 -486 -155 -171 -574 -766 -770
-1092 -126 -210 -307 -576 -393 -795 -191 -486 -329 -1063 -384 -1610 -24
-243 -24 -778 1 -968 46 -363 116 -624 226 -842 91 -183 179 -286 285 -336 67
-32 185 -33 271 -4 207 72 346 270 389 557 27 176 22 255 -45 778 -74 582 -95
797 -110 1143 -18 390 12 771 85 1077 13 55 51 237 85 405 166 828 234 1000
677 1701 142 223 202 321 256 417 35 60 36 62 14 61 -12 -1 -31 -4 -42 -6z"/>
<path d="M5197 10514 c-43 -8 -118 -29 -166 -47 -315 -118 -538 -361 -637
-692 -25 -81 -27 -105 -27 -250 0 -145 2 -169 27 -250 95 -317 304 -559 583
-674 138 -57 233 -75 393 -75 117 0 161 4 229 22 109 29 241 87 331 147 352
234 525 719 398 1115 -28 86 -100 231 -153 305 -211 296 -622 464 -978 399z"/>
<path d="M3615 9014 l-60 -15 -62 -92 c-99 -146 -108 -171 -108 -312 0 -100 4
-132 24 -193 104 -319 454 -735 961 -1143 340 -274 663 -485 1025 -669 277
-141 482 -218 865 -325 113 -32 408 -115 655 -185 442 -126 559 -155 606 -148
43 6 -81 87 -347 228 -316 168 -585 317 -789 438 -373 222 -889 665 -1216
1047 -47 55 -200 251 -339 435 -346 456 -429 559 -540 671 -146 147 -264 229
-379 263 -68 20 -213 20 -296 0z"/>
<path d="M2068 6131 c-162 -52 -289 -173 -361 -344 -97 -232 -126 -473 -107
-908 12 -284 -1 -930 -25 -1240 -18 -219 -72 -540 -130 -773 -51 -199 -326
-1032 -405 -1226 -71 -173 -197 -428 -265 -535 -62 -98 -81 -124 -385 -515
-258 -331 -392 -511 -387 -516 2 -3 23 -2 46 2 62 10 436 273 620 436 175 156
643 690 890 1017 261 345 524 795 698 1196 222 507 355 979 447 1580 61 395
65 767 11 1055 -70 381 -141 559 -270 687 -58 57 -84 75 -126 87 -69 21 -180
19 -251 -3z"/>
<path d="M5815 6055 c-392 -62 -727 -375 -825 -770 -27 -106 -32 -305 -11
-395 83 -357 306 -633 611 -754 159 -63 358 -89 514 -67 100 14 271 71 356
118 252 140 432 392 495 694 22 103 20 304 -4 405 -28 112 -53 173 -124 293
-154 259 -406 425 -721 476 -107 18 -182 18 -291 0z"/>
<path d="M3230 5931 c-59 -12 -146 -57 -192 -100 -87 -79 -118 -170 -119 -341
-1 -185 55 -345 189 -546 79 -116 100 -140 462 -529 471 -505 607 -662 796
-917 205 -276 309 -460 522 -928 77 -168 170 -370 206 -449 97 -208 162 -387
215 -586 82 -311 112 -541 152 -1155 6 -91 14 -185 20 -210 15 -73 42 -160 49
-160 4 0 12 17 18 38 66 251 84 322 102 412 52 261 62 392 61 775 -2 821 -62
1304 -241 1925 -116 402 -308 856 -515 1215 -450 781 -868 1229 -1380 1480
-168 83 -235 97 -345 76z"/>
<path d="M7635 4354 c-16 -2 -71 -13 -122 -25 l-91 -20 -36 -75 c-102 -216
-101 -352 4 -558 232 -452 968 -977 1940 -1383 446 -186 669 -235 1615 -353
138 -18 324 -43 415 -57 237 -36 450 -43 450 -14 0 19 -284 133 -688 277 -382
136 -527 192 -687 269 -182 86 -479 257 -680 391 -313 208 -504 368 -918 770
-476 461 -582 553 -768 664 -126 75 -225 110 -323 115 -44 2 -94 1 -111 -1z"/>
</g>
</svg>
