<?xml version="1.0" standalone="no"?>
<!DOCTYPE svg PUBLIC "-//W3C//DTD SVG 20010904//EN"
 "http://www.w3.org/TR/2001/REC-SVG-20010904/DTD/svg10.dtd">
<svg version="1.0" xmlns="http://www.w3.org/2000/svg"
 width="1280.000000pt" height="815.000000pt" viewBox="0 0 1280.000000 815.000000"
 preserveAspectRatio="xMidYMid meet">
<metadata>
Created by potrace 1.15, written by Peter Selinger 2001-2017
</metadata>
<g transform="translate(0.000000,815.000000) scale(0.100000,-0.100000)"
fill="#000000" stroke="none">
<path d="M10623 8140 c-250 -45 -460 -209 -568 -443 -93 -201 -90 -445 9 -652
138 -291 467 -469 786 -425 182 25 313 91 447 225 79 80 98 105 142 196 30 63
56 134 65 181 95 471 -249 909 -724 924 -58 2 -129 -1 -157 -6z"/>
<path d="M5472 7485 c2 -8 296 -296 653 -640 l650 -625 965 0 964 0 -315 -317
c-370 -373 -364 -364 -364 -523 0 -153 13 -173 274 -434 l209 -208 -102 -87
c-500 -431 -830 -1069 -897 -1735 -25 -253 -2 -621 55 -866 178 -764 704
-1426 1411 -1775 581 -286 1249 -351 1865 -181 195 54 292 91 475 181 535 264
948 676 1210 1210 91 183 127 280 181 475 226 821 34 1713 -511 2375 -95 115
-286 304 -395 390 -209 167 -499 329 -747 419 -141 51 -363 108 -513 131 -143
23 -505 31 -656 16 -221 -23 -525 -95 -681 -162 l-47 -20 -133 133 c-73 73
-133 135 -133 138 0 3 205 210 456 460 251 250 473 480 493 510 51 74 76 124
107 217 35 104 45 329 20 438 -51 218 -219 395 -446 472 -53 17 -141 18 -2053
21 -1772 2 -1998 1 -1995 -13z m5028 -2456 c958 -137 1754 -856 1984 -1792
112 -453 92 -927 -56 -1362 -240 -704 -799 -1263 -1503 -1503 -351 -119 -725
-156 -1099 -106 -972 128 -1770 843 -2011 1800 -176 701 -25 1450 411 2034 83
110 311 348 403 419 l54 42 446 -444 c344 -344 458 -451 498 -471 101 -50 227
-51 328 -1 70 34 147 119 174 190 29 76 28 184 0 262 -20 54 -48 85 -402 440
l-381 382 30 11 c131 50 405 105 594 120 144 11 369 2 530 -21z"/>
<path d="M5486 6942 c-15 -18 -16 -224 -14 -2913 3 -2716 4 -2897 20 -2945 62
-179 257 -297 437 -265 36 7 89 23 117 36 65 32 147 119 182 192 l27 58 5 801
5 801 750 732 c413 402 767 753 787 779 101 126 113 298 31 437 -28 46 -296
321 -1157 1183 -1186 1187 -1147 1151 -1190 1104z m1218 -2729 c-131 -136
-285 -295 -341 -353 l-103 -105 0 695 0 695 342 -342 342 -342 -240 -248z"/>
<path d="M2410 5293 c-337 -35 -639 -121 -937 -268 -252 -125 -458 -272 -667
-475 -632 -615 -916 -1487 -766 -2353 43 -248 118 -474 235 -712 262 -534 675
-946 1210 -1210 183 -90 280 -127 475 -181 434 -120 902 -123 1350 -10 727
183 1361 691 1703 1362 191 375 274 708 284 1130 6 256 -4 391 -48 609 -136
673 -536 1271 -1114 1664 -346 235 -752 386 -1175 437 -104 12 -456 17 -550 7z
m593 -264 c956 -136 1738 -838 1983 -1777 64 -247 89 -560 64 -822 -80 -873
-640 -1645 -1442 -1989 -544 -233 -1161 -260 -1716 -75 -506 169 -945 507
-1247 959 -149 223 -290 562 -345 825 -167 805 80 1636 655 2205 544 539 1285
783 2048 674z"/>
</g>
</svg>
