<?xml version="1.0" standalone="no"?>
<!DOCTYPE svg PUBLIC "-//W3C//DTD SVG 20010904//EN"
 "http://www.w3.org/TR/2001/REC-SVG-20010904/DTD/svg10.dtd">
<svg version="1.0" xmlns="http://www.w3.org/2000/svg"
 width="1162.000000pt" height="1280.000000pt" viewBox="0 0 1162.000000 1280.000000"
 preserveAspectRatio="xMidYMid meet">
<metadata>
Created by potrace 1.15, written by Peter Selinger 2001-2017
</metadata>
<g transform="translate(0.000000,1280.000000) scale(0.100000,-0.100000)"
fill="#000000" stroke="none">
<path d="M8984 12498 c-1136 -1041 -1693 -1480 -2409 -1898 -594 -347 -763
-512 -806 -792 -23 -151 11 -259 109 -349 97 -89 196 -124 328 -117 97 5 148
27 364 158 561 340 1031 791 1814 1745 320 389 530 722 771 1220 110 227 156
325 151 325 -2 0 -147 -132 -322 -292z"/>
<path d="M9910 12543 c-382 -60 -675 -313 -787 -680 -24 -79 -26 -104 -27
-253 -1 -178 10 -240 70 -383 81 -195 253 -375 449 -472 443 -218 970 -64
1232 360 40 63 77 152 105 252 19 66 23 102 23 238 0 137 -4 172 -23 239 -105
364 -390 626 -752 692 -69 12 -232 17 -290 7z m340 -273 c295 -99 480 -354
480 -660 0 -165 -47 -302 -146 -426 -89 -111 -195 -186 -329 -231 -70 -23 -96
-27 -210 -27 -143 -1 -213 15 -325 75 -355 189 -476 644 -259 979 102 157 254
265 433 306 90 20 272 12 356 -16z"/>
<path d="M4284 11670 c-590 -106 -954 -714 -762 -1274 50 -146 126 -268 235
-379 265 -268 668 -357 1025 -227 596 218 827 942 468 1470 -125 183 -332 329
-555 391 -90 24 -320 35 -411 19z"/>
<path d="M9595 10534 c-38 -2 -171 -8 -295 -14 -124 -6 -260 -13 -302 -16
l-78 -7 6 -41 c11 -76 65 -285 115 -449 122 -394 154 -557 224 -1122 25 -203
47 -371 49 -372 1 -2 16 3 32 11 16 8 55 26 87 41 92 43 91 39 84 308 -7 271
-26 443 -83 732 -28 142 -99 439 -138 578 l-25 87 995 0 c717 0 994 -3 994
-11 0 -6 -14 -58 -30 -115 -99 -339 -177 -737 -210 -1069 -11 -113 -19 -509
-10 -518 3 -2 53 -8 111 -11 l107 -7 11 63 c6 35 27 176 46 313 89 631 98 679
219 1125 58 214 118 461 114 465 -2 1 -113 8 -248 15 -221 11 -1596 22 -1775
14z"/>
<path d="M3153 9106 c-338 -64 -696 -317 -1294 -915 -269 -270 -412 -425 -600
-651 -522 -629 -920 -1277 -1203 -1960 -30 -72 -50 -130 -46 -128 5 2 57 41
116 88 148 117 360 330 614 615 646 727 1000 1019 2210 1821 568 376 686 474
743 614 18 44 22 74 22 155 0 93 -3 104 -32 161 -41 78 -107 145 -181 181 -51
25 -69 28 -167 30 -60 1 -142 -4 -182 -11z"/>
<path d="M6515 7450 c-77 -11 -274 -79 -378 -132 -471 -236 -892 -770 -991
-1258 -46 -230 -24 -415 74 -610 87 -173 281 -266 451 -217 70 21 183 111 308
246 51 56 96 100 98 97 12 -11 -83 -603 -133 -828 -76 -345 -155 -569 -394
-1123 -231 -535 -358 -850 -347 -861 5 -5 304 350 473 561 753 942 1192 1740
1389 2525 70 280 88 392 92 585 10 382 -66 678 -224 872 -90 111 -251 166
-418 143z"/>
<path d="M4253 5735 c-273 -62 -437 -274 -707 -915 -230 -543 -369 -998 -681
-2220 -166 -649 -204 -785 -410 -1479 -215 -725 -315 -1076 -315 -1106 0 -14
191 255 349 490 227 338 360 553 811 1305 229 382 464 772 521 865 187 301
553 999 678 1293 190 443 273 786 296 1223 5 88 2 132 -10 184 -33 144 -139
287 -254 342 -68 32 -182 40 -278 18z"/>
</g>
</svg>
