<?xml version="1.0" standalone="no"?>
<!DOCTYPE svg PUBLIC "-//W3C//DTD SVG 20010904//EN"
 "http://www.w3.org/TR/2001/REC-SVG-20010904/DTD/svg10.dtd">
<svg version="1.0" xmlns="http://www.w3.org/2000/svg"
 width="1280.000000pt" height="896.000000pt" viewBox="0 0 1280.000000 896.000000"
 preserveAspectRatio="xMidYMid meet">
<metadata>
Created by potrace 1.15, written by Peter Selinger 2001-2017
</metadata>
<g transform="translate(0.000000,896.000000) scale(0.100000,-0.100000)"
fill="#000000" stroke="none">
<path d="M7235 8951 c-224 -37 -458 -168 -597 -335 -236 -285 -296 -646 -161
-978 69 -172 226 -365 369 -454 250 -156 556 -196 819 -109 28 9 91 36 140 60
251 122 430 350 507 646 31 122 30 320 -2 439 -99 360 -360 619 -718 711 -86
22 -278 33 -357 20z"/>
<path d="M508 8110 c-72 -13 -146 -39 -218 -77 -207 -108 -257 -181 -281 -408
-29 -270 56 -473 293 -707 82 -81 113 -103 190 -141 217 -106 438 -132 653
-77 75 19 187 67 245 105 25 17 28 15 360 -188 421 -256 553 -341 610 -388 70
-58 199 -137 405 -249 184 -100 333 -188 670 -395 207 -127 318 -185 356 -185
77 0 149 81 149 166 0 27 14 30 70 14 56 -15 313 -49 459 -60 217 -16 926 -13
1057 5 210 29 749 130 864 161 283 78 486 193 570 324 136 212 64 508 -145
591 -52 20 -220 16 -306 -9 -93 -26 -250 -93 -419 -177 -814 -408 -1750 -525
-2745 -344 -128 23 -217 50 -297 90 -72 36 -1456 874 -1477 895 -2 2 2 44 8
93 32 232 -63 487 -257 693 -129 136 -240 201 -425 249 -91 24 -307 34 -389
19z"/>
<path d="M9700 6879 c-329 -36 -537 -143 -570 -292 -11 -46 -10 -59 9 -111 42
-120 133 -237 225 -291 56 -33 242 -97 376 -129 58 -14 241 -53 408 -86 421
-84 552 -121 737 -209 277 -131 422 -286 486 -516 18 -67 22 -104 21 -227 -3
-447 -139 -898 -377 -1254 l-73 -109 31 -6 c18 -3 44 1 60 8 73 36 394 324
509 458 224 262 378 606 429 965 18 122 16 364 -4 496 -39 256 -124 411 -341
621 -312 304 -800 530 -1420 658 -158 33 -347 42 -506 24z"/>
<path d="M389 6087 c-136 -57 -221 -162 -251 -311 -23 -115 24 -255 115 -346
229 -230 614 -106 677 217 33 165 -61 348 -219 426 -59 29 -76 32 -166 35 -86
2 -108 -1 -156 -21z m217 -262 c84 -55 80 -180 -7 -227 -94 -50 -208 23 -195
126 12 100 121 155 202 101z"/>
<path d="M9300 4350 c-226 -41 -350 -199 -395 -502 -58 -384 77 -1093 354
-1855 113 -314 343 -796 438 -920 152 -200 412 -380 713 -496 225 -87 301
-107 970 -257 195 -44 486 -109 645 -145 510 -115 609 -126 702 -80 66 33 81
50 56 63 -10 5 -144 51 -298 102 -797 262 -898 299 -1179 434 -414 198 -691
399 -871 631 -134 173 -198 314 -260 568 -64 265 -88 484 -115 1062 -25 537
-41 696 -85 869 -69 275 -200 438 -403 505 -71 23 -206 34 -272 21z"/>
<path d="M8230 4275 c-170 -34 -320 -104 -555 -261 -234 -156 -380 -274 -1065
-864 -239 -207 -660 -569 -935 -805 -945 -812 -1511 -1300 -2000 -1725 -269
-234 -537 -460 -595 -502 -58 -41 -114 -85 -124 -97 l-20 -22 45 7 c217 32
428 137 1129 557 289 173 854 509 1255 747 1373 814 2097 1252 2769 1674 319
200 391 252 497 356 167 164 225 304 200 482 -48 345 -277 518 -601 453z"/>
</g>
</svg>
