<?xml version="1.0" encoding="UTF-8"?><svg xmlns="http://www.w3.org/2000/svg" width="24px" height="24px" fill="none" stroke-width="1.5" viewBox="0 0 24 24" color="#000000"><path fill="#000000" stroke="#000000" stroke-width="1.5" stroke-linecap="round" stroke-linejoin="round" d="M17 12.5a.5.5 0 1 0 0-1 .5.5 0 0 0 0 1ZM12 12.5a.5.5 0 1 0 0-1 .5.5 0 0 0 0 1ZM7 12.5a.5.5 0 1 0 0-1 .5.5 0 0 0 0 1Z"></path><path stroke="#000000" stroke-width="1.5" stroke-linecap="round" stroke-linejoin="round" d="M12 22c5.523 0 10-4.477 10-10S17.523 2 12 2 2 6.477 2 12c0 1.821.487 3.53 1.338 5L2.5 21.5l4.5-.838A9.955 9.955 0 0 0 12 22Z"></path></svg>